<?xml version="1.0" encoding="UTF-8" standalone="no"?>
<!DOCTYPE svg PUBLIC "-//W3C//DTD SVG 1.1//EN" "http://www.w3.org/Graphics/SVG/1.1/DTD/svg11.dtd">
<svg width="100%" height="100%" viewBox="0 0 1700 1404" version="1.1" xmlns="http://www.w3.org/2000/svg" xmlns:xlink="http://www.w3.org/1999/xlink" xml:space="preserve" xmlns:serif="http://www.serif.com/" style="fill-rule:evenodd;clip-rule:evenodd;stroke-linecap:round;stroke-linejoin:round;stroke-miterlimit:1.5;">
    <g transform="matrix(1,0,0,1,-155.332415,-249.920557)">
        <path d="M476,1639L473,1447C473,1447 469.922,1418.144 462,1384C454.078,1349.856 387.435,1229.103 383,1223" style="fill:none;stroke:rgb(145,173,146);stroke-width:29.17px;"/>
        <path d="M292,1446C292,1446 433.563,1527.539 460,1527" style="fill:none;stroke:rgb(145,173,146);stroke-width:29.17px;"/>
        <path d="M458,1535C458,1535 436.753,1562.721 377,1558C317.247,1553.279 274.868,1537.546 242,1496C209.132,1454.454 167.8,1392.959 170,1387C172.2,1381.041 262.732,1373.541 295,1380C327.268,1386.459 375.28,1398.205 413,1443C450.72,1487.795 455.337,1522.7 458,1535Z" style="fill:none;stroke:rgb(145,173,146);stroke-width:29.17px;"/>
        <path d="M465,1384C465,1384 491.987,1345.71 490,1280C488.013,1214.29 456.945,1165.44 430,1143C403.055,1120.56 377.457,1091.083 277,1052" style="fill:none;stroke:rgb(145,173,146);stroke-width:29.17px;"/>
        <path d="M458,1397C458,1397 366.178,1372.787 323,1313C279.822,1253.213 275.403,1237.878 270,1188C264.597,1138.122 276,1052 276,1052" style="fill:none;stroke:rgb(145,173,146);stroke-width:29.17px;"/>
        <path d="M1170,1108C1170,1108 1112.315,1614.218 1112,1614" style="fill:none;stroke:rgb(145,173,146);stroke-width:29.17px;"/>
        <path d="M1157,1304C1157,1304 1181.151,1398.54 1178,1439C1174.849,1479.46 1169.147,1494.324 1163,1513C1156.853,1531.676 1123.657,1598.216 1114,1612" style="fill:none;stroke:rgb(145,173,146);stroke-width:29.17px;"/>
        <path d="M631,1639L783,1548C783,1548 830.625,1536.146 836,1441C841.375,1345.854 883,1195 883,1195" style="fill:none;stroke:rgb(145,173,146);stroke-width:29.17px;"/>
        <path d="M480,1601L551,1477C551,1477 590.455,1431.558 585,1353C579.545,1274.442 543.654,1267.384 580,1184C616.346,1100.616 680,1031 680,1031C680,1031 798.735,922.055 721,812" style="fill:none;stroke:rgb(145,173,146);stroke-width:29.17px;"/>
        <path d="M910,1638C910,1638 936.765,1612.151 946,1588C955.235,1563.849 1089.696,1245.894 1045,1050" style="fill:none;stroke:rgb(145,173,146);stroke-width:29.17px;"/>
        <path d="M651,1067C651,1067 614.946,1114.804 657,1133C699.054,1151.196 740.796,1099.259 755,1089C769.204,1078.741 838.513,1008.134 851,999C863.487,989.866 893.198,963.075 939,960C984.802,956.925 1032.705,1029.282 1047,1051" style="fill:none;stroke:rgb(145,173,146);stroke-width:29.17px;"/>
        <path d="M722,807C722,807 592.615,918.008 583,827" style="fill:none;stroke:rgb(145,173,146);stroke-width:29.17px;"/>
        <path d="M584,824L564,809L569,794L546,780L544,755L510,741C510,741 528.143,668.46 526,656C523.857,643.54 505.155,622.2 503,600C500.845,577.8 497.898,530.351 514,506C530.102,481.649 575.531,381.515 702,381C828.469,380.485 888.408,481.274 911,512C933.592,542.726 1044.032,875.216 1048,1049" style="fill:none;stroke:rgb(145,173,146);stroke-width:29.17px;"/>
        <path d="M535,474C535,474 537.589,534.734 586,566C634.411,597.266 731.347,653.117 767,682C802.653,710.883 854.354,761.612 879,825C903.646,888.388 943.863,956.812 977,971" style="fill:none;stroke:rgb(145,173,146);stroke-width:29.17px;"/>
        <path d="M1604,1316C1583.907,1369.287 1562.769,1442.268 1609,1626" style="fill:none;stroke:rgb(145,173,146);stroke-width:29.17px;"/>
        <path d="M1041,911C1041,911 1132.869,751.124 1176,510C1219.131,268.876 1385.509,261.611 1401,265C1416.491,268.389 1522.68,262.933 1584,373" style="fill:none;stroke:rgb(145,173,146);stroke-width:29.17px;"/>
        <path d="M1044,908C1044,908 1092.825,854.304 1164,841C1235.175,827.696 1330.415,716.446 1340,617" style="fill:none;stroke:rgb(145,173,146);stroke-width:29.17px;"/>
        <path d="M1361,627C1351.385,620.317 1298.937,596.179 1308,553C1317.063,509.821 1334.503,509.915 1358,514C1381.497,518.085 1370.202,537.762 1415,514C1459.798,490.238 1497.472,461.039 1513,440C1528.528,418.961 1546.571,390.133 1554,364C1561.429,337.867 1559,345 1559,345" style="fill:none;stroke:rgb(145,173,146);stroke-width:29.17px;"/>
        <path d="M1159,847C1159,847 1333.961,1008.934 1364,1007" style="fill:none;stroke:rgb(145,173,146);stroke-width:29.17px;"/>
        <path d="M1496,861C1496,861 1524.264,944.3 1512,1007" style="fill:none;stroke:rgb(145,173,146);stroke-width:29.17px;"/>
        <path d="M1816,1363C1867.184,1417.427 1855.042,1762.351 1603,1321" style="fill:none;stroke:rgb(145,173,146);stroke-width:29.17px;"/>
        <path d="M1606,1317C1589.049,1288.738 1577.34,1250.689 1552,1237C1526.66,1223.311 1483.184,1197.95 1469,1175C1454.816,1152.05 1408.98,1102.426 1403,1084C1397.02,1065.574 1365.937,1019.587 1369,1008C1372.063,996.413 1383.683,961.434 1417,969C1450.317,976.566 1542.919,1032.998 1556,1050C1569.081,1067.002 1607.534,1122.091 1628,1162C1648.466,1201.909 1703.58,1261.125 1733,1290C1762.42,1318.875 1808.471,1359.953 1814,1362" style="fill:none;stroke:rgb(145,173,146);stroke-width:29.17px;"/>
        <path d="M1398,1067L1464,1114" style="fill:none;stroke:rgb(145,173,146);stroke-width:29.17px;"/>
        <path d="M1381,1011L1487,1084" style="fill:none;stroke:rgb(145,173,146);stroke-width:29.17px;"/>
        <path d="M1394,986L1507,1053" style="fill:none;stroke:rgb(145,173,146);stroke-width:29.17px;"/>
        <path d="M1822,1366C1822,1366 1700.198,1088.262 1689,1060C1677.802,1031.738 1646.128,896.91 1544,877C1441.872,857.09 1433.786,823.759 1427,803C1420.214,782.241 1438.729,711.329 1441,709C1443.271,706.671 1538.237,749.796 1552,735" style="fill:none;stroke:rgb(145,173,146);stroke-width:29.17px;"/>
        <path d="M1554,735C1554,735 1567.553,729.053 1570,702C1572.447,674.947 1589.351,674.951 1589,675C1588.649,675.049 1580,661 1580,661L1602,644L1593,620L1626,590C1626,590 1595.652,539.384 1594,512" style="fill:none;stroke:rgb(145,173,146);stroke-width:29.17px;"/>
        <path d="M1586,375C1586,375 1608.012,409.469 1606,440C1603.988,470.531 1594,511 1594,511" style="fill:none;stroke:rgb(145,173,146);stroke-width:29.17px;"/>
    </g>
</svg>
